# xmcd
#
# Track frame offsets: 
#        150
#        14957
#        24244
#        41166
#        50338
#        63707
#        74393
#        90139
#        97470
#        104256
#        120984
#        129407
#        145230
#        167410
#        185067
#        199767
#        212302
#        222801
#        234389
#
# Disc length: 3258 seconds
#
# Revision: 0
# Processed by: cddbd v1.5.2PL0 Copyright (c) Steve Scherf et al.
# Submitted via: ExactAudioCopy v1.3
#
DISCID=0f0cb813
DTITLE=Ансамбль Ключ - Двадцать
DYEAR=2016
DGENRE=Other
TTITLE0=Антикавказская (А. Крупп)
TTITLE1=Уплыли облака, как льдины (А. Загот)
TTITLE2=Бокал (В. Высоцкий)
TTITLE3=Катится осень (В. Ланцберг)
TTITLE4=Капли датского короля (И. Шварц - Б. Окуджава)
TTITLE5=Тучи (С. Кирсанов - С. Швец)
TTITLE6=Самба по дороге домой (С. Швец - Питер Джон Филандер, пер. Е. 
TTITLE6=Витковский)
TTITLE7=Точка, точка, запятая (Г. Гладков - Ю. Ким)
TTITLE8=Как чудесно, что однажды получается... (Г. Гладков - Ю. Ким)
TTITLE9=В час, далёкий от рассвета (А. Иванов)
TTITLE10=Куда улетучилась трель барабана (А. Соловьёв)
TTITLE11=Вилковская фантазия (Б. Окуджава)
TTITLE12=Ностальгия по настоящему (М. Таривердиев - А. Вознесенский) +
TTITLE12=Подарок (Е. Клячкин)
TTITLE13=У чёрного моря (М. Табачников - С. Кирсанов)
TTITLE14=Она встала на цыпочки (С. Труханов - А. Логвинова)
TTITLE15=За кулисами (А. Вертинский)
TTITLE16=Мальчик купает солнце (А. Деревягин)
TTITLE17=Цирк (Б. Окуджава)
TTITLE18=Ночная дорога (А. Алабин)
EXTD=
EXTT0=
EXTT1=
EXTT2=
EXTT3=
EXTT4=
EXTT5=
EXTT6=
EXTT7=
EXTT8=
EXTT9=
EXTT10=
EXTT11=
EXTT12=
EXTT13=
EXTT14=
EXTT15=
EXTT16=
EXTT17=
EXTT18=
PLAYORDER=
